<svg xmlns="http://www.w3.org/2000/svg" viewBox="-11.126 -155.909 2074.829 174.309">
  <title>THORNO.MEDIA</title>
  <g transform="translate(0,0)">
    <path fill="#000000" transform="translate(0.000,0) scale(0.200000,-0.200000)" d="M322.3046875 0V523.6533203125H24.36962890625V687.54345703125H823.8681640625V523.6533203125H525.93310546875V0Z"/>
    <path fill="#000000" transform="translate(171.600,0) scale(0.200000,-0.200000)" d="M84.50048828125 0V687.54345703125H288.12890625V431.67333984375H700.783203125V687.54345703125H904.41162109375V0H700.783203125V267.783203125H288.12890625V0Z"/>
    <path fill="#000000" transform="translate(371.400,0) scale(0.200000,-0.200000)" d="M506.28271484375 -12Q367.10888671875 -12 265.93505859375 30.315185546875Q164.76123046875 72.63037109375 109.902587890625 152.13037109375Q55.0439453125 231.63037109375 55.0439453125 344Q55.0439453125 456.36962890625 109.902587890625 535.9130859375Q164.76123046875 615.45654296875 265.93505859375 657.5Q367.10888671875 699.54345703125 506.28271484375 699.54345703125Q646 699.54345703125 746.902099609375 657.5Q847.80419921875 615.45654296875 902.662841796875 535.9130859375Q957.521484375 456.36962890625 957.521484375 344Q957.521484375 231.63037109375 902.662841796875 152.13037109375Q847.80419921875 72.63037109375 746.902099609375 30.315185546875Q646 -12 506.28271484375 -12ZM506.28271484375 138.912109375Q560.130859375 138.912109375 604.5224609375 152.096923828125Q648.9140625 165.28173828125 681.164306640625 190.379638671875Q713.41455078125 215.4775390625 730.838623046875 251.58642578125Q748.2626953125 287.6953125 748.2626953125 333V356.54345703125Q748.2626953125 401.84814453125 730.838623046875 437.45703125Q713.41455078125 473.06591796875 681.164306640625 497.89208984375Q648.9140625 522.71826171875 604.5224609375 535.6748046875Q560.130859375 548.63134765625 506.28271484375 548.63134765625Q452.4345703125 548.63134765625 408.04296875 535.6748046875Q363.6513671875 522.71826171875 331.401123046875 497.89208984375Q299.15087890625 473.06591796875 281.955078125 437.45703125Q264.75927734375 401.84814453125 264.75927734375 356.54345703125V333Q264.75927734375 287.6953125 281.955078125 251.58642578125Q299.15087890625 215.4775390625 331.401123046875 190.379638671875Q363.6513671875 165.28173828125 408.04296875 152.096923828125Q452.4345703125 138.912109375 506.28271484375 138.912109375Z"/>
    <path fill="#000000" transform="translate(576.000,0) scale(0.200000,-0.200000)" d="M84.50048828125 0V687.54345703125H656.76025390625Q731.93408203125 687.54345703125 781.1513671875 656.684814453125Q830.36865234375 625.826171875 854.9990234375 575.424072265625Q879.62939453125 525.02197265625 879.62939453125 465.478515625Q879.62939453125 400.130859375 848.6728515625 346.630859375Q817.71630859375 293.130859375 755.5205078125 262.0439453125L896.0859375 0H666.392578125L552.3486328125 228.6962890625H288.12890625V0ZM288.12890625 379.15185546875H590.3046875Q626.97900390625 379.15185546875 648.946533203125 401.21728515625Q670.9140625 423.28271484375 670.9140625 459.76123046875Q670.9140625 484.41357421875 661.0009765625 501.65283203125Q651.087890625 518.89208984375 633.163818359375 527.76171875Q615.23974609375 536.63134765625 590.3046875 536.63134765625H288.12890625Z"/>
    <path fill="#000000" transform="translate(764.400,0) scale(0.200000,-0.200000)" d="M84.50048828125 0V687.54345703125H266.62939453125L623.06494140625 366.75927734375Q632.2607421875 359.02001953125 646.45654296875 344.9111328125Q660.65234375 330.80224609375 676.076416015625 315.693359375Q691.50048828125 300.58447265625 703.32666015625 288.388671875H712.41357421875Q711.95703125 306.041015625 711.272216796875 333.193359375Q710.58740234375 360.345703125 710.58740234375 381.4326171875V687.54345703125H903.32470703125V0H723.65234375L375.9990234375 313.9150390625Q352.259765625 335.02392578125 326.0205078125 360.817626953125Q299.78125 386.611328125 283.955078125 402.3505859375H275.8681640625Q276.32470703125 388.80712890625 276.78125 360.111328125Q277.23779296875 331.41552734375 277.23779296875 298.11083984375V0Z"/>
    <path fill="#000000" transform="translate(964.000,0) scale(0.200000,-0.200000)" d="M506.28271484375 -12Q367.10888671875 -12 265.93505859375 30.315185546875Q164.76123046875 72.63037109375 109.902587890625 152.13037109375Q55.0439453125 231.63037109375 55.0439453125 344Q55.0439453125 456.36962890625 109.902587890625 535.9130859375Q164.76123046875 615.45654296875 265.93505859375 657.5Q367.10888671875 699.54345703125 506.28271484375 699.54345703125Q646 699.54345703125 746.902099609375 657.5Q847.80419921875 615.45654296875 902.662841796875 535.9130859375Q957.521484375 456.36962890625 957.521484375 344Q957.521484375 231.63037109375 902.662841796875 152.13037109375Q847.80419921875 72.63037109375 746.902099609375 30.315185546875Q646 -12 506.28271484375 -12ZM506.28271484375 138.912109375Q560.130859375 138.912109375 604.5224609375 152.096923828125Q648.9140625 165.28173828125 681.164306640625 190.379638671875Q713.41455078125 215.4775390625 730.838623046875 251.58642578125Q748.2626953125 287.6953125 748.2626953125 333V356.54345703125Q748.2626953125 401.84814453125 730.838623046875 437.45703125Q713.41455078125 473.06591796875 681.164306640625 497.89208984375Q648.9140625 522.71826171875 604.5224609375 535.6748046875Q560.130859375 548.63134765625 506.28271484375 548.63134765625Q452.4345703125 548.63134765625 408.04296875 535.6748046875Q363.6513671875 522.71826171875 331.401123046875 497.89208984375Q299.15087890625 473.06591796875 281.955078125 437.45703125Q264.75927734375 401.84814453125 264.75927734375 356.54345703125V333Q264.75927734375 287.6953125 281.955078125 251.58642578125Q299.15087890625 215.4775390625 331.401123046875 190.379638671875Q363.6513671875 165.28173828125 408.04296875 152.096923828125Q452.4345703125 138.912109375 506.28271484375 138.912109375Z"/>
    <path fill="#E0993D" transform="translate(1168.600,0) scale(0.200000,-0.200000)" d="M78.97314453125 0V121.53955078125H201.3232421875V0Z"/>
    <path fill="#000000" transform="translate(1226.600,0) scale(0.200000,-0.200000)" d="M107.56787109375 0V686.54052734375H272.80908203125L480.810546875 256.80859375Q487.810546875 242.18701171875 498.3916015625 218.052001953125Q508.97265625 193.9169921875 519.864501953125 168.160400390625Q530.75634765625 142.40380859375 539.3779296875 121.4580078125H545.91845703125Q553.5400390625 139.86328125 563.7021484375 164.119873046875Q573.8642578125 188.37646484375 584.715576171875 212.78173828125Q595.56689453125 237.18701171875 603.56689453125 254.80859375L811.568359375 686.54052734375H974.56640625V0H865.7568359375V441.59521484375Q865.7568359375 459.51416015625 866.2568359375 482.8115234375Q866.7568359375 506.10888671875 867.29736328125 528.90625Q867.837890625 551.70361328125 868.37841796875 568.54150390625H860.837890625Q855.37841796875 554.919921875 847.37841796875 535.7578125Q839.37841796875 516.595703125 831.148681640625 497.203857421875Q822.9189453125 477.81201171875 815.45947265625 462.73095703125L593.080078125 0H485.97314453125L263.05322265625 462.73095703125Q254.05322265625 481.81201171875 245.323486328125 501.703857421875Q236.59375 521.595703125 229.63427734375 539.2578125Q222.6748046875 556.919921875 217.6748046875 568.54150390625H210.13427734375Q210.6748046875 553.3251953125 211.1748046875 531.068359375Q211.6748046875 508.8115234375 211.945068359375 485.4736328125Q212.21533203125 462.1357421875 212.21533203125 441.59521484375V0Z"/>
    <path fill="#000000" transform="translate(1445.000,0) scale(0.200000,-0.200000)" d="M107.56787109375 0V686.54052734375H784.18896484375V594.46044921875H216.37744140625V397.3779296875H727.4052734375V305.2978515625H216.37744140625V92.080078125H792.18896484375V0Z"/>
    <path fill="#000000" transform="translate(1620.800,0) scale(0.200000,-0.200000)" d="M107.56787109375 0V686.54052734375H457.94580078125Q582.5673828125 686.54052734375 671.918701171875 647.5Q761.27001953125 608.45947265625 809.310546875 532.189208984375Q857.35107421875 455.9189453125 857.35107421875 343Q857.35107421875 230.62158203125 809.310546875 154.351318359375Q761.27001953125 78.0810546875 671.918701171875 39.04052734375Q582.5673828125 0 457.94580078125 0ZM216.37744140625 92.080078125H453.62158203125Q515.513671875 92.080078125 568.4462890625 105.9990234375Q621.37890625 119.91796875 661.162841796875 149.09375Q700.94677734375 178.26953125 723.1630859375 223.66162109375Q745.37939453125 269.0537109375 745.37939453125 332V354.54052734375Q745.37939453125 417.48681640625 723.1630859375 462.87890625Q700.94677734375 508.27099609375 661.162841796875 537.44677734375Q621.37890625 566.62255859375 568.4462890625 580.54150390625Q515.513671875 594.46044921875 453.62158203125 594.46044921875H216.37744140625Z"/>
    <path fill="#000000" transform="translate(1809.800,0) scale(0.200000,-0.200000)" d="M107.56787109375 0V686.54052734375H216.37744140625V0Z"/>
    <path fill="#000000" transform="translate(1876.600,0) scale(0.200000,-0.200000)" d="M31.3515625 0 380.40576171875 686.54052734375H506.45849609375L855.5126953125 0H735.83837890625L654.29736328125 161.94677734375H225.7021484375L144.1611328125 0ZM270.080078125 251.86474609375H609.4599609375L508.32421875 455.244140625Q502.4052734375 467.1630859375 493.135009765625 486.8251953125Q483.86474609375 506.4873046875 474.36474609375 527.60888671875Q464.86474609375 548.73046875 456.675537109375 566.379150390625Q448.486328125 584.02783203125 444.27001953125 591.46044921875H436.27001953125Q426.35107421875 570.08203125 413.702392578125 543.1630859375Q401.0537109375 516.244140625 389.864501953125 492.244140625Q378.67529296875 468.244140625 371.67529296875 454.70361328125Z"/>
  </g>
</svg>
